{
  "accessors": [
    {
      "bufferView": 2,
      "componentType": 5126,
      "count": 65532,
      "max": [
        6.002051830291748,
        6.119636058807373,
        22.78548240661621
      ],
      "min": [
        -5.694578170776367,
        -6.950170516967773,
        5.858315467834473
      ],
      "type": "VEC3"
    },
    {
      "bufferView": 2,
      "byteOffset": 786384,
      "componentType": 5126,
      "count": 65532,
      "max": [
        0.9999743103981018,
        0.999983012676239,
        0.9999669790267944
      ],
      "min": [
        -0.9999604821205139,
        -0.9999702572822571,
        -0.9999988079071045
      ],
      "type": "VEC3"
    },
    {
      "bufferView": 1,
      "componentType": 5126,
      "count": 65532,
      "max": [
        0.9997550249099731,
        0.9890140295028687
      ],
      "min": [
        0.00024399999529123306,
        0.00024900000425986946
      ],
      "type": "VEC2"
    },
    {
      "bufferView": 0,
      "componentType": 5125,
      "count": 156351,
      "type": "SCALAR"
    },
    {
      "bufferView": 2,
      "byteOffset": 1572768,
      "componentType": 5126,
      "count": 65532,
      "max": [
        7.583134651184082,
        5.97706413269043,
        28.695009231567383
      ],
      "min": [
        -3.818943738937378,
        -6.438967227935791,
        5.308731555938721
      ],
      "type": "VEC3"
    },
    {
      "bufferView": 2,
      "byteOffset": 2359152,
      "componentType": 5126,
      "count": 65532,
      "max": [
        0.9999026656150818,
        0.9999966621398926,
        1.0
      ],
      "min": [
        -0.9999163746833801,
        -0.9999909400939941,
        -0.9999488592147827
      ],
      "type": "VEC3"
    },
    {
      "bufferView": 1,
      "byteOffset": 524256,
      "componentType": 5126,
      "count": 65532,
      "max": [
        0.9997439980506897,
        0.9880369901657104
      ],
      "min": [
        0.00024399999529123306,
        0.00024399999529123306
      ],
      "type": "VEC2"
    },
    {
      "bufferView": 0,
      "byteOffset": 625404,
      "componentType": 5125,
      "count": 145680,
      "type": "SCALAR"
    },
    {
      "bufferView": 2,
      "byteOffset": 3145536,
      "componentType": 5126,
      "count": 65532,
      "max": [
        7.703721523284912,
        6.015397071838379,
        13.56250286102295
      ],
      "min": [
        -5.350144863128662,
        -6.6488776206970215,
        4.524589538574219
      ],
      "type": "VEC3"
    },
    {
      "bufferView": 2,
      "byteOffset": 3931920,
      "componentType": 5126,
      "count": 65532,
      "max": [
        0.9999078512191772,
        0.9999894499778748,
        0.9999987483024597
      ],
      "min": [
        -0.9999336004257202,
        -0.9999831318855286,
        -0.999920666217804
      ],
      "type": "VEC3"
    },
    {
      "bufferView": 1,
      "byteOffset": 1048512,
      "componentType": 5126,
      "count": 65532,
      "max": [
        0.9997469782829285,
        0.9987789988517761
      ],
      "min": [
        0.00024399999529123306,
        0.0002519999979995191
      ],
      "type": "VEC2"
    },
    {
      "bufferView": 0,
      "byteOffset": 1208124,
      "componentType": 5125,
      "count": 141441,
      "type": "SCALAR"
    },
    {
      "bufferView": 2,
      "byteOffset": 4718304,
      "componentType": 5126,
      "count": 65532,
      "max": [
        2.898944139480591,
        2.4570348262786865,
        18.323699951171875
      ],
      "min": [
        -5.700718879699707,
        -6.671112060546875,
        4.591589450836182
      ],
      "type": "VEC3"
    },
    {
      "bufferView": 2,
      "byteOffset": 5504688,
      "componentType": 5126,
      "count": 65532,
      "max": [
        0.9999936819076538,
        0.9999988675117493,
        0.9999935030937195
      ],
      "min": [
        -0.9999503493309021,
        -0.9999999403953552,
        -0.9996384978294373
      ],
      "type": "VEC3"
    },
    {
      "bufferView": 1,
      "byteOffset": 1572768,
      "componentType": 5126,
      "count": 65532,
      "max": [
        0.999705970287323,
        0.9880369901657104
      ],
      "min": [
        0.00024399999529123306,
        0.0002629999944474548
      ],
      "type": "VEC2"
    },
    {
      "bufferView": 0,
      "byteOffset": 1773888,
      "componentType": 5125,
      "count": 128271,
      "type": "SCALAR"
    },
    {
      "bufferView": 2,
      "byteOffset": 6291072,
      "componentType": 5126,
      "count": 65534,
      "max": [
        5.526822090148926,
        4.5389723777771,
        25.630178451538086
      ],
      "min": [
        -3.887133836746216,
        -5.617247104644775,
        12.887818336486816
      ],
      "type": "VEC3"
    },
    {
      "bufferView": 2,
      "byteOffset": 7077480,
      "componentType": 5126,
      "count": 65534,
      "max": [
        0.9998164772987366,
        0.9999486804008484,
        0.9999740123748779
      ],
      "min": [
        -0.9999575018882751,
        -0.9998221397399902,
        -0.9999880194664001
      ],
      "type": "VEC3"
    },
    {
      "bufferView": 1,
      "byteOffset": 2097024,
      "componentType": 5126,
      "count": 65534,
      "max": [
        0.9997439980506897,
        0.9890140295028687
      ],
      "min": [
        0.00024399999529123306,
        0.0002460000105202198
      ],
      "type": "VEC2"
    },
    {
      "bufferView": 0,
      "byteOffset": 2286972,
      "componentType": 5125,
      "count": 129261,
      "type": "SCALAR"
    },
    {
      "bufferView": 2,
      "byteOffset": 7863888,
      "componentType": 5126,
      "count": 65532,
      "max": [
        6.002051830291748,
        4.436496734619141,
        25.726818084716797
      ],
      "min": [
        -3.818943738937378,
        -5.456482887268066,
        12.637557983398438
      ],
      "type": "VEC3"
    },
    {
      "bufferView": 2,
      "byteOffset": 8650272,
      "componentType": 5126,
      "count": 65532,
      "max": [
        0.999993622303009,
        0.9999532699584961,
        0.9999975562095642
      ],
      "min": [
        -0.9999771118164063,
        -0.9999801516532898,
        -0.9998776316642761
      ],
      "type": "VEC3"
    },
    {
      "bufferView": 1,
      "byteOffset": 2621296,
      "componentType": 5126,
      "count": 65532,
      "max": [
        0.9997379779815674,
        0.9880369901657104
      ],
      "min": [
        0.00024399999529123306,
        0.00024900000425986946
      ],
      "type": "VEC2"
    },
    {
      "bufferView": 0,
      "byteOffset": 2804016,
      "componentType": 5125,
      "count": 122094,
      "type": "SCALAR"
    },
    {
      "bufferView": 2,
      "byteOffset": 9436656,
      "componentType": 5126,
      "count": 42133,
      "max": [
        5.265665531158447,
        3.9926981925964355,
        25.888246536254883
      ],
      "min": [
        -3.451490879058838,
        -4.1547675132751465,
        12.853399276733398
      ],
      "type": "VEC3"
    },
    {
      "bufferView": 2,
      "byteOffset": 9942252,
      "componentType": 5126,
      "count": 42133,
      "max": [
        0.9998394846916199,
        0.9998922944068909,
        0.9999998807907104
      ],
      "min": [
        -0.9999640583992004,
        -0.9999801516532898,
        -0.9998776316642761
      ],
      "type": "VEC3"
    },
    {
      "bufferView": 1,
      "byteOffset": 3145552,
      "componentType": 5126,
      "count": 42133,
      "max": [
        0.9996899962425232,
        0.987060010433197
      ],
      "min": [
        0.00024399999529123306,
        0.0002570000069681555
      ],
      "type": "VEC2"
    },
    {
      "bufferView": 0,
      "byteOffset": 3292392,
      "componentType": 5125,
      "count": 76425,
      "type": "SCALAR"
    }
  ],
  "asset": {
    "extras": {
      "author": "Marc Sawyer (https://sketchfab.com/whitewashstudio)",
      "license": "CC-BY-4.0 (http://creativecommons.org/licenses/by/4.0/)",
      "source": "https://sketchfab.com/3d-models/christmas-tree-037e1ac7f30543d1b0f2635b1d1e2e1a",
      "title": "Christmas Tree"
    },
    "generator": "Sketchfab-12.67.0",
    "version": "2.0"
  },
  "bufferViews": [
    {
      "buffer": 0,
      "byteLength": 3598092,
      "name": "floatBufferViews",
      "target": 34963
    },
    {
      "buffer": 0,
      "byteLength": 3482616,
      "byteOffset": 3598092,
      "byteStride": 8,
      "name": "floatBufferViews",
      "target": 34962
    },
    {
      "buffer": 0,
      "byteLength": 10447848,
      "byteOffset": 7080708,
      "byteStride": 12,
      "name": "floatBufferViews",
      "target": 34962
    }
  ],
  "buffers": [
    {
      "byteLength": 17528556,
      "uri": "scene.bin"
    }
  ],
  "images": [
    {
      "uri": "textures/model_Material_u1_v1_baseColor.jpeg"
    }
  ],
  "materials": [
    {
      "doubleSided": true,
      "name": "model_Material_u1_v1",
      "pbrMetallicRoughness": {
        "baseColorTexture": {
          "index": 0
        },
        "metallicFactor": 0.0
      }
    }
  ],
  "meshes": [
    {
      "name": "Object_0",
      "primitives": [
        {
          "attributes": {
            "NORMAL": 1,
            "POSITION": 0,
            "TEXCOORD_0": 2
          },
          "indices": 3,
          "material": 0,
          "mode": 4
        }
      ]
    },
    {
      "name": "Object_1",
      "primitives": [
        {
          "attributes": {
            "NORMAL": 5,
            "POSITION": 4,
            "TEXCOORD_0": 6
          },
          "indices": 7,
          "material": 0,
          "mode": 4
        }
      ]
    },
    {
      "name": "Object_2",
      "primitives": [
        {
          "attributes": {
            "NORMAL": 9,
            "POSITION": 8,
            "TEXCOORD_0": 10
          },
          "indices": 11,
          "material": 0,
          "mode": 4
        }
      ]
    },
    {
      "name": "Object_3",
      "primitives": [
        {
          "attributes": {
            "NORMAL": 13,
            "POSITION": 12,
            "TEXCOORD_0": 14
          },
          "indices": 15,
          "material": 0,
          "mode": 4
        }
      ]
    },
    {
      "name": "Object_4",
      "primitives": [
        {
          "attributes": {
            "NORMAL": 17,
            "POSITION": 16,
            "TEXCOORD_0": 18
          },
          "indices": 19,
          "material": 0,
          "mode": 4
        }
      ]
    },
    {
      "name": "Object_5",
      "primitives": [
        {
          "attributes": {
            "NORMAL": 21,
            "POSITION": 20,
            "TEXCOORD_0": 22
          },
          "indices": 23,
          "material": 0,
          "mode": 4
        }
      ]
    },
    {
      "name": "Object_6",
      "primitives": [
        {
          "attributes": {
            "NORMAL": 25,
            "POSITION": 24,
            "TEXCOORD_0": 26
          },
          "indices": 27,
          "material": 0,
          "mode": 4
        }
      ]
    }
  ],
  "nodes": [
    {
      "children": [
        1
      ],
      "matrix": [
        1.0,
        0.0,
        0.0,
        0.0,
        0.0,
        2.220446049250313e-16,
        -1.0,
        0.0,
        0.0,
        1.0,
        2.220446049250313e-16,
        0.0,
        0.0,
        0.0,
        0.0,
        1.0
      ],
      "name": "Sketchfab_model"
    },
    {
      "children": [
        2,
        3,
        4,
        5,
        6,
        7,
        8
      ],
      "name": "model.obj.cleaner.materialmerger.gles"
    },
    {
      "mesh": 0,
      "name": "Object_2"
    },
    {
      "mesh": 1,
      "name": "Object_3"
    },
    {
      "mesh": 2,
      "name": "Object_4"
    },
    {
      "mesh": 3,
      "name": "Object_5"
    },
    {
      "mesh": 4,
      "name": "Object_6"
    },
    {
      "mesh": 5,
      "name": "Object_7"
    },
    {
      "mesh": 6,
      "name": "Object_8"
    }
  ],
  "samplers": [
    {
      "magFilter": 9729,
      "minFilter": 9987,
      "wrapS": 10497,
      "wrapT": 10497
    }
  ],
  "scene": 0,
  "scenes": [
    {
      "name": "Sketchfab_Scene",
      "nodes": [
        0
      ]
    }
  ],
  "textures": [
    {
      "sampler": 0,
      "source": 0
    }
  ]
}
